<svg version="1.2" xmlns="http://www.w3.org/2000/svg" viewBox="0 0 1800 1200" width="1800" height="1200"><style></style><path  d="m102-279c-18.7 7.7-28.1 22.8-26.4 42.7l0.8 9.1-8.7 3.6c-44.7 18.8-83.5 45.1-110.2 74.9-11.5 12.8-13 14.7-23.9 31.5-14.8 22.7-26.3 51.9-30.5 78.6-1 5.9-2.1 11-2.5 11.4-0.3 0.3-2.4-1.5-4.7-4-25.9-29.6-59.1-50.4-96.6-60.9-13-3.6-14.6-3.7-40.6-3.7-26.6 0-27.3 0.1-41.3 4.1-18.5 5.4-29 9.4-41.2 15.7-5.5 3-10.6 5.3-11.4 5.3-0.6 0-3.2-2.2-5.5-4.9-2.3-2.7-7.7-6.8-12.1-9.1-32-17.1-69.5 16.6-56.6 50.6 8.2 22.2 34.5 33.3 55.3 23.6 13.7-6.4 24.5-22 24.5-35.3v-5.9l7.1 0.9c24.5 2.8 49.1 18 70.5 43.3 36.1 42.9 62.1 125.3 71.9 227.5 1.8 18.9 3.7 29 6 32.5 10 15.7 77.8 28.1 162.3 29.7 37.6 0.6 54.4-0.2 100.5-4.7 28.9-2.8 66-12.1 78-19.6 6.9-4.2 8.5-7.2 9.6-18.1 1.8-17.6 9.5-49 16.7-68.1 1.7-4.7 6.4-14.8 10.4-22.6 6-12.4 10-18.8 22.3-36.7 7.3-10.7 31.7-35 44.9-44.5 12.4-9.1 43-25.8 51.5-28.1 1.4-0.4 3.9-1 5.3-1.5 2.3-0.7 2.9 0 3.6 3.4 1.3 7 6.6 16.9 11.7 22.2 15.6 15.9 42 15.9 57.9 0 8.1-8.1 11.7-17.3 11.7-29.5-0.1-9-0.6-11.4-4.1-18.2-7.5-14.4-18.3-21.3-34.9-22.2-10.1-0.5-11.2-0.4-19 3.6-4.5 2.4-9.5 5.6-11.1 7.3-1.5 1.6-3.6 3.1-4.4 3.1-0.9 0-5.2-2.5-9.8-5.6-9.4-6.3-32.2-19.1-39.4-22.3-24.5-10.6-53.2-17.3-73.9-17.3-30.5 0-62.4 11.5-87 31.2-4.2 3.4-8.4 6.2-9.1 6.2-2 0-9.5-12-18.6-29.8-12.6-24.7-20.4-47.3-25.3-73.6-6.4-35.2-2.3-66.5 13.3-98 2.7-5.6 3.7-5.8 10.3-2 4.1 2.4 6.8 3 16.5 3 10.2 0 12.4-0.4 18.4-3.7 8.7-4.5 12.4-7.7 17.1-15 5.1-8 7.1-19.5 5-30.1-2.8-14-11.4-24.3-25.4-29.9-10.3-4.1-19.1-4.1-28.9-0.1z"/></svg>