<svg version="1.2" xmlns="http://www.w3.org/2000/svg" viewBox="0 0 800 800" width="800" height="800">
		<path fill="#000000" d="m399.9 63.9c-0.4 0.4-9.7 2-20.5 3.6-10.9 1.6-26.3 4.6-34.2 6.6-7.9 2-20.9 5.8-28.8 8.2-7.9 2.5-23.7 8.8-35.1 13.9-11.3 5.2-27.9 13.7-36.8 19.1-8.9 5.3-22.7 14.5-30.6 20.5-7.9 5.9-24.6 20.9-37 33.4-12.4 12.4-28.3 30.3-35.2 39.7-6.9 9.4-16.7 24-21.8 32.4-5 8.4-11.7 20.9-14.8 27.9-3.2 6.9-8.1 18.6-11 26-2.8 7.5-7.6 21.6-10.5 31.5-2.9 9.9-7 27.7-9 39.6-2.8 16.5-3.7 29.6-3.7 56.2 0 29 0.7 38.6 4.4 59.3 2.5 13.6 6.6 32 9.2 41 2.6 8.9 8.3 25 12.7 35.9 4.5 10.9 11.9 26.7 16.4 35.1 4.6 8.4 13.6 23 19.9 32.4 6.4 9.4 17.5 23.9 24.7 32.3 7.2 8.4 19.9 21.4 28.1 28.9 8.3 7.5 19.9 17.3 25.8 21.8 5.9 4.5 17.3 12.4 25.2 17.5 7.9 5.2 23.3 13.7 34.2 19 10.8 5.2 27 12.2 35.9 15.4 8.9 3.3 23.1 7.8 31.5 10.2 8.4 2.3 28.2 6 44.1 8.2 28.3 4 31.8 4 214.9 4h186.1c1.7-117 2.9-205.7 3.6-272.4 1.3-111.6 1.2-122.8-1.7-138.5-1.7-9.4-5-25.2-7.3-35.1-2.3-9.9-7.1-26.1-10.8-36-3.7-9.9-9.6-24-13.1-31.4-3.4-7.5-10.7-21.2-16.2-30.6-5.4-9.4-13.2-21.6-17.2-27-4.1-5.4-13.9-17.6-21.9-27-8-9.4-21.6-23.1-30.3-30.6-8.7-7.4-21.7-17.9-29-23.3-7.2-5.5-23.5-15.6-36.2-22.5-12.7-6.9-31.6-16-42-20.2-10.4-4.2-28.2-10-39.6-13-11.3-2.9-31-7-43.6-9-15.8-2.5-31.5-3.7-50.5-3.7-15.1 0-27.9 0.3-28.3 0.7z"/>
		<path fill="#000000" d="m340.5 17.2c-0.4 0.4-9.6 2-20.5 3.6-10.9 1.5-26.2 4.5-34.2 6.5-7.9 2.1-20.8 5.8-28.7 8.3-8 2.5-23.7 8.7-35.1 13.9-11.4 5.1-28 13.7-36.9 19-8.9 5.3-22.6 14.6-30.6 20.5-7.9 5.9-24.5 21-37 33.4-12.4 12.5-28.2 30.3-35.2 39.7-6.9 9.4-16.7 24-21.7 32.4-5.1 8.4-11.8 21-14.9 27.9-3.1 6.9-8.1 18.7-10.9 26.1-2.9 7.4-7.6 21.6-10.6 31.4-2.9 9.9-6.9 27.7-8.9 39.6-2.8 16.6-3.7 29.7-3.7 56.2 0 29 0.7 38.7 4.4 59.4 2.4 13.6 6.5 32 9.1 40.9 2.6 8.9 8.3 25.1 12.8 36 4.4 10.8 11.8 26.6 16.4 35 4.6 8.4 13.5 23 19.9 32.4 6.4 9.4 17.5 24 24.7 32.4 7.2 8.4 19.8 21.4 28.1 28.8 8.2 7.5 19.8 17.3 25.7 21.8 6 4.5 17.3 12.4 25.2 17.6 7.9 5.1 23.3 13.6 34.2 18.9 10.9 5.3 27.1 12.2 36 15.5 8.9 3.2 23 7.8 31.4 10.1 8.5 2.3 28.3 6 44.1 8.2 28.3 4 31.8 4.1 214.9 4.1h186.2c1.7-117.1 2.8-205.7 3.6-272.5 1.3-111.5 1.1-122.8-1.7-138.5-1.8-9.4-5.1-25.2-7.3-35.1-2.3-9.9-7.2-26-10.9-35.9-3.7-9.9-9.5-24.1-13-31.5-3.5-7.4-10.8-21.2-16.2-30.6-5.5-9.4-13.2-21.5-17.3-27-4-5.4-13.9-17.5-21.8-26.9-8-9.4-21.7-23.2-30.3-30.6-8.7-7.4-21.7-18-29-23.4-7.3-5.4-23.6-15.6-36.3-22.5-12.7-6.9-31.6-16-41.9-20.2-10.4-4.1-28.2-10-39.6-12.9-11.4-3-31-7.1-43.6-9.1-15.8-2.5-31.5-3.6-50.5-3.6-15.2 0-27.9 0.3-28.4 0.7z"/>
		<path fill-rule="evenodd" fill="#f2f2fa"  d="m263.8 289.9c6.1-0.1 12 0.6 16.2 2 3.7 1.1 9.3 3.7 12.5 5.7 3.2 2 8.9 6.8 19.7 17.5l8.7-8.1c5.5-5.1 11.8-9.6 17.3-12.4 7.6-3.7 9.9-4.3 19.1-4.7 7.6-0.3 12.4 0.2 17.5 1.6 3.8 1.1 9 3.1 11.5 4.4 2.6 1.3 8.7 6.3 22.6 20l9-8.9c6.5-6.5 11.2-9.9 17.1-12.7 7.1-3.3 9.6-3.9 19.7-4.3 9.6-0.4 12.8 0 18.8 2 4 1.3 9.4 3.7 11.9 5.3 2.6 1.6 8.2 6.2 12.5 10.3 4.3 4.1 9.9 10.4 12.4 14.1 2.6 3.7 12 14 20.9 23 9 9 18.4 19 21 22.1 2.5 3.2 5.8 9 7.2 12.8 1.5 3.8 3 10.6 3.3 15 0.4 5.6 0 10.5-1.3 15.7-1.1 4.1-3.6 10.3-5.7 13.7-2 3.4-8.4 10.7-14.1 16.3-6.7 6.5-13 11.5-17.7 13.8-4.3 2.2-10.6 4.2-15.6 5-6.2 0.9-10.4 0.9-15.9-0.2-4.2-0.7-10.4-2.8-13.9-4.5-3.6-1.8-10.7-7.2-25.5-20.9l-9.6 8.8c-5.7 5.4-12.3 10.2-16.5 12.2-3.9 1.9-10.7 3.9-15.6 4.5-7.2 1-10.3 0.9-17.4-0.7-5-1.1-11.4-3.6-15.1-5.8-3.5-2.1-9.2-6.8-12.7-10.4-3.5-3.6-7.3-7-8.4-7.6-1.7-0.8-3.9 0.7-11.6 8.1q-9.6 9.2-16.5 12.4c-3.9 1.7-10.6 3.6-15.1 4.2-6.2 0.8-10.1 0.6-16.8-0.8-5.1-1-11.2-3.3-14.9-5.5-3.4-2.1-14.4-11.7-24.3-21.3-10-9.6-20.5-19-23.4-21-2.8-1.9-10-8.4-15.8-14.4-8-8.2-11.6-12.8-14.4-18.9-3.4-7.1-3.9-9.6-4.4-19.7-0.3-9.4 0-13.2 2-19.7 1.5-5.1 4.2-10.7 7.5-15.1 2.8-3.8 9.1-10.7 13.9-15.3 4.9-4.7 11.7-9.8 15-11.5 3.4-1.7 8.2-3.8 10.7-4.6 2.6-0.8 9-1.5 14.2-1.5zm-14.2 13.1c-2.5 0.8-7 2.7-9.8 4.1-2.9 1.5-7 4.1-9.2 5.7-2.2 1.7-6.3 6.2-9.1 10-3.1 4.3-6 10-7.5 15.1-1.9 6.6-2.3 10.2-1.8 19.7 0.4 10 1 12.6 4.2 19.4 2 4.3 6.2 10.5 9.2 13.7 3 3.2 7.3 7 9.5 8.3 2.3 1.4 12.6 10.6 22.9 20.5 10.4 9.9 21.6 19.7 25 21.8 3.6 2.3 9.4 4.5 14.7 5.6 7.1 1.5 10.2 1.6 17.4 0.5 4.8-0.7 11.3-2.5 14.5-3.9 3.2-1.5 8.9-5.6 12.7-9.1 3.8-3.5 8-8.3 9.3-10.6 1.3-2.4 2.6-4.3 2.9-4.3 0.3 0 4.5 4 9.2 8.8 4.8 4.8 11.6 10.5 15.1 12.6 3.7 2.3 10.1 4.7 15.1 5.8 7.1 1.6 10.2 1.8 17.4 0.8 5.2-0.7 11.4-2.6 15.6-4.6 3.8-1.9 9.7-6.1 13-9.3 3.4-3.3 7-7.6 8-9.7 1-2.1 2.1-4 2.3-4.3 0.2-0.4 5 3.8 10.6 9.2 5.7 5.5 13.3 11.5 17.1 13.5 3.8 2.1 10.3 4.3 14.5 5 5.4 1 9.8 1 15.9 0.1 4.6-0.6 11.1-2.6 14.5-4.2 3.3-1.7 8.7-5.3 11.8-8 3.2-2.7 7.5-7.7 9.6-11.2 2-3.4 4.5-9.3 5.5-13.1 0.9-3.9 1.8-9.6 1.8-12.8 0-3.2-0.8-8.8-1.8-12.4-0.9-3.7-2.8-8.9-4.2-11.6-1.4-2.8-11-13.6-21.8-24.6-10.6-10.9-20.7-22-22.4-24.7-1.7-2.7-5.4-7-8.1-9.7-2.7-2.6-8.8-6.7-13.6-9-8.5-4-9-4.1-22.6-4.1-13.3 0-14.2 0.1-21.7 3.7-4.3 2.1-10.5 6.3-13.7 9.3-3.3 3-7.3 7.7-9 10.4-1.7 2.7-3.5 4.9-4 4.9-0.4 0-2.1-2.2-3.6-4.9-1.5-2.7-5.3-7.3-8.4-10.2-3.1-2.9-7.7-6.4-10.3-7.7-2.5-1.3-7.7-3.3-11.5-4.4-5.2-1.5-9.7-1.9-17.4-1.5-8.7 0.4-11.8 1.2-18.3 4.2-4.3 2-10.7 6.4-14.3 9.8-3.6 3.3-7.8 8.4-9.4 11.3l-2.9 5.2c-4.5-8.1-7.7-12.4-10-14.9-2.3-2.4-6.8-6-10-8-3.2-2-8.8-4.6-12.5-5.8-4.2-1.3-10.1-2-16.2-1.9-5.2 0-11.6 0.7-14.2 1.5zm15.1 34.3c2.6 0 6.3 1 8.4 2.3 2.1 1.3 4.8 4 6.1 6.1 1.3 2.2 2.3 5.8 2.3 8.7 0 2.7-0.8 6.5-1.8 8.4-0.9 1.9-3.4 4.5-5.5 5.7-2.3 1.4-5.9 2.3-9.2 2.4-3.1 0-7.1-0.8-9-1.7-1.9-1-4.5-3.2-5.8-5-1.7-2.3-2.4-4.9-2.4-9.5 0-4.5 0.7-7.4 2.3-9.7 1.3-1.8 4.1-4.3 6.2-5.5 2-1.2 5.8-2.2 8.4-2.2zm97.6 0.2c5.2 0.3 6.6 1 10.4 4.7 3.8 3.9 4.4 5.2 4.8 11.1 0.4 5.3 0 7.3-2 10.4-1.4 2-4 4.5-6 5.5-1.9 0.9-5.9 1.7-8.9 1.7-3.4-0.1-7-1-9.3-2.4-2.1-1.2-4.6-3.8-5.5-5.7-1-1.9-1.7-5.7-1.7-8.4 0-2.9 0.9-6.5 2.3-8.7 1.2-2.1 4-4.8 6.1-6.2 2.8-1.7 5.2-2.2 9.8-2zm95.2-0.2c3.6 0 6.6 0.9 9.1 2.6 2.1 1.4 4.8 4.7 6.1 7.2 1.2 2.6 2.2 5.9 2.3 7.3 0 1.4-0.7 4.3-1.5 6.4-0.9 2-3.4 5.1-5.5 6.9-3.3 2.6-5.2 3.1-10.7 3.2-6.1 0-7.1-0.4-11.4-4.4-4.1-3.7-4.8-5.1-5.3-10.1-0.4-4.3 0.1-6.8 1.7-9.8 1.2-2.3 3.9-5.3 6.1-6.7 2.6-1.8 5.5-2.6 9.1-2.6zm-197.5 14.2c-1.1 1.4-1.9 3.2-1.8 4 0.1 0.8 0.9 2.3 1.9 3.2 0.9 1 3.1 1.8 4.9 1.8 1.8 0 3.9-0.7 4.7-1.5 0.8-0.8 1.4-2.6 1.4-4 0-1.5-0.8-3.4-1.8-4.4-0.9-0.9-3-1.7-4.6-1.7-1.5 0-3.6 1.1-4.7 2.6zm96.8-1.2c-0.9 0.7-1.5 2.7-1.4 4.3 0.1 1.6 0.9 3.6 1.7 4.4 0.8 0.8 2.8 1.5 4.4 1.5 1.6 0 3.6-0.7 4.4-1.5 0.7-0.8 1.4-2.7 1.4-4.3 0-1.6-0.7-3.6-1.5-4.4-0.8-0.8-2.8-1.4-4.4-1.4-1.7 0-3.7 0.6-4.6 1.4zm96.2 0c-0.9 0.7-1.6 2.7-1.4 4.3 0.1 1.6 0.8 3.6 1.6 4.4 0.8 0.8 2.9 1.5 4.7 1.5 2.1 0 3.7-1 4.9-2.9 1.6-2.6 1.6-3.2 0-5.8-1.2-2-2.7-2.9-5-2.9-1.8 0-3.9 0.6-4.8 1.4z"/>
		<path fill-rule="evenodd" opacity="1" fill=" #e1e1e1" d="m368.1 61.7c8.7-0.2 23.7 0.6 33.3 1.7 9.6 1 25.2 3.5 34.6 5.4 9.4 2 25.6 6.4 36 9.9 10.4 3.5 27.4 10.6 37.8 15.8 10.3 5.1 27.7 15.4 38.6 22.7 13.7 9.3 27 20.6 43.3 36.8 14.9 14.8 28.1 30.1 35.9 41.4 6.8 9.9 16.2 25.3 20.9 34.2 4.7 8.9 11.1 22.6 14.2 30.6 3.1 7.9 7.6 20.4 9.8 27.8 2.3 7.5 5.8 23.6 7.8 36 2.1 12.4 3.9 29.8 4 38.7 0.2 8.9 0.2 86.4-0.1 328.2l-176.7-0.5c-176.4-0.5-176.7-0.6-196.5-4.7-10.9-2.3-28.3-6.9-38.7-10.3-10.3-3.4-27.3-10.3-37.7-15.2-10.4-5-27.8-15-38.7-22.4-10.9-7.3-26.5-19.2-34.6-26.4-8.2-7.2-20.2-19.2-26.7-26.6-6.4-7.4-17.7-22.4-25-33.3-7.3-10.9-17.7-29.1-23.1-40.4-5.3-11.4-12.2-28.4-15.3-37.8-3-9.4-7.2-25.2-9.3-35.1-2.8-12.9-4.1-27.5-4.8-52.1-0.8-27-0.3-38.6 2.1-54.9 1.7-11.4 5.7-30 9-41.4 3.3-11.3 9.9-29.5 14.6-40.4 4.8-10.9 12.4-25.9 16.9-33.3 4.5-7.4 13-20 18.8-27.9 5.8-7.9 19.6-23.4 30.5-34.4 11-10.9 26.4-24.7 34.3-30.4 7.9-5.8 20.9-14.3 28.8-18.9 7.9-4.5 20.9-11.2 28.8-14.8 7.9-3.5 21.6-8.9 30.6-11.9 8.9-2.9 24.6-7.1 35-9.2 10.4-2.1 25-4.5 32.4-5.3 7.4-0.8 20.6-1.5 29.2-1.6zm-13.9 24.3c-4 0.3-14.5 1.4-23.4 2.5-8.9 1.1-23.9 4-33.3 6.5-9.4 2.5-25.2 7.7-35 11.5-9.9 3.9-25.3 11.2-34.2 16.2-8.9 5-22.6 13.7-30.3 19.3-7.8 5.6-20.3 15.9-27.7 22.8-7.5 7-18.8 19.1-25.1 27-6.4 7.9-15 19.7-19.3 26.1-4.2 6.4-11.8 19.8-16.7 29.7-5 9.9-11.5 25.2-14.6 34.1-3.1 8.9-7.2 23.1-9.1 31.5-1.9 8.4-4.5 24.2-5.7 35.1-1.4 11.9-1.8 28-1.1 40.5 0.6 11.3 2.4 28.3 3.9 37.7 1.5 9.4 6.1 27.6 10.1 40.5 4.1 12.9 10.6 29.9 14.6 37.8 4 7.9 11.3 20.8 16.3 28.7 5 8 13.6 20.1 19.1 27 5.5 6.9 15.7 18.3 22.7 25.2 7.1 6.9 18.8 17.2 26.2 22.8 7.3 5.6 19.8 14.1 27.7 18.9 7.9 4.8 18.8 10.8 24.3 13.5 5.4 2.6 14.3 6.5 19.8 8.7 5.4 2.2 16.3 5.9 24.2 8.3 8 2.4 23.7 6 35.1 7.9 19.5 3.3 30.1 3.5 180.3 3.5h159.6c0-277.5-0.6-314.2-2.5-329.1-1.4-10.4-4.2-25.4-6.2-33.3-2.1-7.9-5.7-20-8.1-27-2.3-6.9-7-18.2-10.3-25.1-3.2-7-9.1-18.3-13-25.2-4-6.9-13-20.3-20.2-29.7-7.2-9.4-19.8-23.6-28.1-31.5-8.2-8-21.1-18.9-28.5-24.3-7.4-5.5-17.5-12.5-22.5-15.6-4.9-3.2-17.4-9.7-27.8-14.6-10.4-4.9-26.6-11.4-36-14.4-9.4-3.1-23.4-6.8-31-8.3-7.7-1.5-23.1-3.6-34.2-4.6-11.1-1-23.1-1.6-26.5-1.5-3.5 0.2-9.6 0.6-13.5 0.9zm16.2 20.7c7.9-0.1 22.9 0.9 33.2 2.3 10.4 1.3 24.2 3.8 30.6 5.4 6.4 1.7 15.4 4.2 19.8 5.7 4.5 1.5 14.6 5.4 22.5 8.7 7.9 3.3 19.6 9 26.1 12.7 6.4 3.6 17.7 10.9 25.1 16.1 7.5 5.2 20.3 15.9 28.6 23.6 8.3 7.8 20.9 21.9 28 31.3 7 9.4 16.5 23.6 20.9 31.5 4.5 7.9 10.7 20.4 13.7 27.9 3.1 7.4 7.7 20.3 10.2 28.7 2.5 8.4 5.8 23 7.4 32.4 2.3 14.4 2.7 40.4 2.8 313h-145.7c-137.7 0-146.9-0.2-166.8-3.7-11.7-1.9-28.9-6.1-38.3-9.1-9.4-3.1-24.7-9.2-34.1-13.6-9.4-4.4-25.2-13.5-35.1-20.1-11.1-7.4-25.6-19.6-37.9-31.8-10.9-10.9-24.4-26.2-29.9-34.2-5.5-7.9-13.4-20.4-17.5-27.8-4.2-7.5-10.3-20.4-13.6-28.8-3.3-8.4-8.1-23-10.6-32.4-2.5-9.4-5.5-25.2-6.7-35.1-1.3-11.2-1.7-28.4-1.1-45.8 0.6-15.4 2.4-34 4.1-41.4 1.6-7.4 5.3-20.8 8.3-29.7 2.9-8.9 8.7-23.4 12.9-32.3 4.2-8.9 12-22.7 17.2-30.6 5.3-7.9 14.1-20 19.7-26.8 5.6-6.8 15-16.9 20.9-22.5 6-5.5 16.9-14.6 24.3-20 7.4-5.5 19.6-13.5 27-17.7 7.4-4.2 17.1-9.3 21.6-11.3 4.4-2 14.1-5.9 21.5-8.7 7.5-2.7 21.2-6.7 30.6-8.9 9.4-2.1 23.6-4.5 31.5-5.4 7.9-0.8 20.9-1.5 28.8-1.6zm-23.4 24.9c-8.9 0.9-25.9 4.1-37.8 7.1-11.9 3-29.7 9.1-39.5 13.6-9.9 4.5-22.4 10.7-27.7 13.9-5.3 3.2-17.8 12.4-27.8 20.5-10.1 8.1-23.2 20.6-29.3 27.9-6 7.2-14.7 18.5-19.1 24.9-4.5 6.4-11.8 19-16.3 27.9-4.4 8.9-10.6 23.8-13.7 33.2-3.1 9.4-7 24-8.7 32.4-2.1 10.8-3 24.1-3 45 0.1 21.3 1 33.9 3.3 44.9 1.7 8.4 5.2 21.8 7.7 29.7 2.5 7.9 7.8 21.3 11.7 29.7 3.9 8.4 12.4 23.4 18.9 33.3 7.8 11.8 18.3 24.4 30.9 36.8 10.5 10.4 25.2 23.1 32.6 28.2 7.4 5.1 21.6 13.3 31.5 18.2 9.9 5 25.8 11.5 35.5 14.6 9.6 3.1 25 6.8 34.2 8.3 13.7 2.2 40.4 2.7 151.9 2.7h135.4c-0.1-237.2-0.6-267.1-2.7-281.5-1.4-9.9-4.2-23.7-6.1-30.6-2-6.9-6.7-20.3-10.6-29.7-3.8-9.4-11-23.6-15.8-31.7-4.9-8.1-15-22.1-22.4-31.1-7.4-9.1-19.9-22-27.9-28.6-7.9-6.7-19.2-15.5-25.1-19.5-6-4-17.7-10.7-26.1-14.9-8.4-4.3-23.4-10.4-33.3-13.6-9.9-3.3-25.3-7.2-34.2-8.7-8.9-1.6-23.8-3.2-33.2-3.7-9.4-0.4-24.4-0.1-33.3 0.8z"/>
</svg>