<svg version="1.2" xmlns="http://www.w3.org/2000/svg" viewBox="0 0 47 46" width="49" height="49"><style>.a{stroke:#fff;paint-order:stroke fill markers;stroke-linejoin:round;stroke-width:4}</style><path fill-rule="evenodd" class="a" d="m45.1 27c0 5.9-4.8 10.7-10.7 10.7-3.5 0-6.6-1.7-8.6-4.3 1.2 4.6 2.8 9.3 4.4 10.8h-12.9c1.7-1.5 3.2-6.2 4.4-10.8-2 2.6-5 4.3-8.5 4.3-6 0-10.8-4.8-10.8-10.7 0-5.9 4.8-10.7 10.8-10.7q0.2 0 0.5 0-0.6-1.7-0.7-3.6c0-5.9 4.8-10.7 10.8-10.7 5.9 0 10.7 4.8 10.7 10.7q0 1.9-0.6 3.6 0.2 0 0.5 0c5.9 0 10.7 4.8 10.7 10.7zm-20.9-3.6c0 0 0 0.1 0.1 0q-0.1 0-0.1 0z"/></svg>