<svg version="1.2" xmlns="http://www.w3.org/2000/svg" viewBox="0 0 256 256" width="256" height="256">
	<title>image</title>
	<style>
		.s0 { fill: #060d06 } 
		.s1 { fill: #9fa5b5 } 
	</style>
	<path id="Path 0 copy" class="s0" d="m0 128v128h256v-256h-256z"/>
	<path id="Path 0" class="s1" d="m158.7 50.4c-11.7 2.2-28.6 5.7-37.5 7.6-8.9 2-18.7 4.4-21.8 5.3l-5.5 1.6c-0.7 23.1-0.9 38.7-1 49.4-0.1 10.8-0.3 27.2-0.5 36.3l-0.2 16.7c-9.3 3.9-14.7 5.1-18 5.1-3.2 0-7.9 0.7-10.2 1.7-2.3 0.9-5.8 3.4-7.7 5.5-2.3 2.6-3.5 6.2-3.4 11.1 0 5.5 1.2 8.6 4.7 12.6 4 4.6 6.1 5.5 14.9 6.2 5.7 0.5 13 0 16.2-1 3.3-1 7.9-3.9 10.3-6.3 4.2-4.5 4.3-4.6 6-53.9l1.7-49.4c9.2-2.5 25-5.9 40.9-9.3 16-3.3 29.2-5.8 29.3-5.6 0.2 0.3 0.4 10.1 0.7 21.8 0.2 11.7 0.2 26.5 0.1 32.9-0.2 10.1-0.7 11.7-4 13.4-2.2 1.1-8.5 2.4-14.1 2.9-6.3 0.6-12.3 2.4-15.4 4.6-4.1 2.8-5.2 4.9-5.5 10.7-0.3 4 0.6 9.3 1.9 11.9 1.2 2.6 5.1 6 8.5 7.7 3.8 1.8 10.2 3 16.4 3 9.3 0 10.9-0.6 16.7-5.9l6.4-5.8 0.9-135.1c-7.3 0.2-19 2.1-30.8 4.3z"/>
</svg>