<svg version="1.2" xmlns="http://www.w3.org/2000/svg" viewBox="0 0 800 800" width="800" height="800">
		<path fill-rule="evenodd" fill ="#000000" stroke="#ffffff" paint-order="stroke fill markers" stroke-linejoin="round" stroke-width="14" d="m322.9 21.1h113.3l34 30.4v121.4l14 6.9c7.8 3.8 14.6 6.9 15.3 6.9 0.6 0 23.1-22 50-48.9 26.8-26.9 49.2-48.9 49.7-48.9 0.5 0 8.3 6.8 17.3 15.2 9 8.3 34.4 33 96.3 94.6l-98.8 98.9 16.6 33.9 114.4 0.1 35.5 31.6 0.2 113.3-142.1-0.1-2.1 7.2c-1.1 4-4.4 12.9-7.2 19.9-2.9 7-7.6 17-10.6 22.4-3 5.4-5.6 10.3-5.8 11-0.2 0.6 21.8 23.2 98.2 99.4l-79.7 80-24.6-23.2c-13.5-12.8-36.2-34.9-50.4-49.2-14.2-14.3-26.5-26-27.3-26-0.8 0-6 2.3-11.5 5.1-5.5 2.7-15 6.8-21 9.1-6 2.2-14.4 4.9-26.4 7.7v139.1h-113.3l-34-30.5 0.1-121.8-6.6-3.2c-3.7-1.7-9.2-4.5-17.7-9.5l-49.1 49.3c-33.1 33.3-49.7 49.1-50.9 48.7-0.9-0.4-8.1-6.5-16.1-13.7-7.9-7.3-32.8-31.8-96.5-95.8l48.8-48.9c26.9-26.9 48.9-49.2 48.9-49.7 0-0.5-3-6.8-13.2-27.4h-117.3l-33.9-30.4-0.1-114.4h139.2l1.2-4.9c0.6-2.7 3.3-10.9 5.9-18.1 2.5-7.3 7.5-18.9 17.2-38.6l-99.1-98.9 79.3-79.3 2.6 2.4c1.5 1.3 7.6 6.7 13.6 11.9 6 5.2 27.3 25.9 83.8 82.3l11.3-6c6.2-3.2 17.2-8.3 24.5-11.1 7.3-2.8 15.7-5.7 24.1-7.6zm63.3 269.4c-4.1 1-11.1 3.2-15.5 4.8-4.5 1.7-12 5.2-16.7 7.9-4.7 2.6-10 5.9-11.8 7.4-1.7 1.4-3.6 2.6-4.2 2.6-0.5 0-5.9 4.9-12 10.9-6.1 6-11.1 11.4-11.1 12.1 0 0.6-1.2 2.5-2.7 4.3-1.5 1.7-4 5.2-5.4 7.7-1.5 2.6-4.3 8-6.4 12.1-2.1 4.1-4.8 10.9-6.2 15-1.3 4.1-3.2 11.3-4.2 16.1-1.2 5.7-1.9 14.1-1.9 24.7 0.1 12.5 0.6 18.4 2.6 26.4 1.3 5.7 3.4 13.2 4.6 16.7 1.2 3.5 4.1 10.2 6.6 15 2.4 4.7 6.3 11.2 8.5 14.3 2.4 3.4 6.5 7.2 9.8 9 3.1 1.8 10 5 15.4 7.1 5.4 2.2 13.7 4.9 18.4 6 6.6 1.6 13.3 2.1 28.2 2.1 14.7 0 21.6-0.5 27.9-2 4.5-1.1 11.5-3.2 15.5-4.7 3.9-1.5 10.3-4.2 14.1-6 3.8-1.8 10.7-5.9 15.5-9.1 4.7-3.2 12.7-10 17.8-15 5.1-5.1 11.5-12.6 14.3-16.7 2.8-4.1 7-11.1 9.4-15.5 2.3-4.4 5.5-11.9 7.1-16.7 1.6-4.7 3.8-13 5-18.4 1.3-6.5 2-14.7 2-24.7 0-9.8-0.7-18.1-2.1-24.1-1.1-5.1-3.3-13.1-4.9-17.9-1.6-4.7-4.5-11.4-6.4-14.9-1.9-3.5-4-7.4-4.7-8.7-0.7-1.2-2.8-4.4-4.7-7.1-1.9-2.6-5.5-6.1-8.1-7.7-2.5-1.7-8.5-4.6-13.2-6.6-4.7-2-13.5-4.8-19.5-6.3-7.8-2-15.3-2.9-25.9-3.3-8.2-0.2-17.8 0-21.3 0.5-3.5 0.5-9.7 1.7-13.8 2.7z"/>
		<path fill-rule="evenodd" opacity="1" fill="#e9e9e9" d="m371.2 47.5h16.1v4c0 4 0.1 4.1 11 4.6l0.6 64.4c0.3 35.5 0.7 64.6 0.8 64.7 0.2 0.2 2.1 0.3 4.3 0.3 2.2 0 10.4 1.3 18.1 2.8 7.8 1.6 18.8 4.5 24.5 6.5 5.7 1.9 15.8 6.1 22.4 9.3 6.6 3.1 16.5 8.6 21.9 12.2 5.3 3.5 11.7 8 18.6 13.5l45-45.1c24.8-24.9 45.6-45.2 46.2-45.2 0.6 0 2.7 1.5 8 6.9l6.4-6.3 5.2 5.2c2.8 2.8 5.1 5.7 5.1 6.3 0 0.6-1.2 2.3-5.2 6.4l8.1 8-45.4 45.4c-35 35-45.2 45.8-44.3 47 0.6 0.9 5.1 7.5 10 14.7 4.8 7.2 11.6 19 15.1 26.3 3.4 7.2 8.1 18.9 10.3 25.8 2.2 7 4.9 18.4 6 25.3 1.1 7 2.2 13.9 2.9 17.9l128.2 0.6 0.6 12 8.6 0.6v13.8l-8.6 0.6-0.6 12.1-129.4 0.5-1.3 9.5c-0.6 5.2-2.9 15.5-5 22.7-2.1 7.3-6.3 18.9-9.4 25.9-3 7-8.1 16.8-11.1 21.9-3.1 5-8.7 13.3-19.4 27.5l91.1 90.9-8.7 8.6 6.3 6.4-10.9 10.9-6.3-6.3-3.7 3.7c-2.1 2-4.3 3.7-4.9 3.7-0.7 0-21.5-20.3-91.5-90.2l-7.2 5.1c-3.9 2.8-11.3 7.5-16.3 10.4-5.1 2.9-13.4 7.2-18.4 9.4-5.1 2.3-12.8 5.4-17.3 7-4.4 1.6-14 4.2-21.3 5.9-7.2 1.6-16.4 3-27.6 3v128.8h-11.5v9.2h-16.1v-9.2h-11.5v-128.8h-3.7c-2 0-8.9-1.1-15.2-2.3-6.4-1.3-17-4.2-23.6-6.5-6.6-2.2-17.8-6.9-24.7-10.4-7-3.5-18.2-10.2-25-14.8-9.7-6.7-12.8-8.3-14.4-7.5-1.1 0.6-21.7 20.8-89.4 88.6l-8.6-8.6-6.4 6.3-10.9-10.9 6.3-6.3-3.7-3.7c-2-2.1-3.7-4.3-3.7-5 0-0.6 20.1-21.3 89.5-90.8l-3.2-4c-1.7-2.2-6-8.4-9.5-13.8-3.6-5.4-8.3-13.6-10.6-18.1-2.3-4.6-5.8-12.4-7.7-17.3-2-4.9-4.8-12.8-6.2-17.5-1.5-4.8-3.6-14.2-6.9-33.4h-127.1v-12.6h-9.2v-15h9.2v-12.6h127.6v-5.8c0-3.1 1.1-11 2.4-17.5 1.3-6.5 4.2-17.2 6.5-23.9 2.2-6.6 6.7-17.5 10-24.1 3.3-6.7 8.9-16.5 12.5-21.9 3.6-5.4 7.5-11 10.6-15.1l-90.8-90.6 8-8.1-2.5-2.6c-1.4-1.4-2.6-3.1-2.6-3.8-0.1-0.6 2.2-3.4 10.3-11.5l6.3 6.4 8.1-8.1 44.8 44.8c24.7 24.7 45.4 44.9 46 45 0.7 0 2.2-1.1 3.5-2.5 1.2-1.3 7.7-6.1 14.3-10.5 6.7-4.4 16.3-10.1 21.3-12.7 5.1-2.5 13.6-6.3 19-8.4 5.4-2 13.9-4.8 19-6.1 5-1.4 13.6-3.2 18.9-4.2 5.4-0.9 10.2-2.4 10.7-3.1 0.4-0.8 0.8-29.8 0.8-64.4 0-54.9 0.3-63 1.8-63.6 0.9-0.3 3.5-0.5 5.7-0.5 3.9 0 4-0.2 4-4.1zm0 136.9h16.2v-127.7h-16.2zm191.5 8.1l-44.8 44.8c8 8.1 10.8 10.4 11.5 10.4 0.6 0 21.3-20.2 46-44.8l44.8-44.9c-8-8-10.8-10.4-11.5-10.4-0.6 0-21.3 20.2-46 44.9zm-415.8-36.2l-5.1 5.2 90.3 90.2c8-8 10.4-10.8 10.4-11.5 0-0.6-19.8-20.9-44-45.1-24.2-24.2-44.6-44-45.2-44-0.7 0-3.5 2.3-6.4 5.2zm213.7 42.8c-2.4 0.3-8.6 1.3-13.8 2.3-5.2 0.9-13.4 2.9-18.1 4.3-4.7 1.4-13 4.4-18.4 6.7-5.4 2.2-12.9 5.7-16.7 7.8-3.8 2.1-10.5 6.1-14.9 9-4.5 2.9-12.5 8.9-17.9 13.3-5.3 4.5-14.1 13.3-19.4 19.6-5.3 6.3-12.2 15.4-15.4 20.1-3.1 4.7-8.7 14.8-12.4 22.4-3.9 8-8.4 19.7-10.7 27.6-2.2 7.6-4.8 19.6-5.8 26.8-1 7.1-1.8 18.5-1.8 25.3 0 6.8 0.8 17.8 1.7 24.4 0.8 6.6 2.6 16.2 3.9 21.3 1.3 5 3.6 12.8 5.1 17.2 1.6 4.5 4.5 11.7 6.6 16.1 2.1 4.5 5.9 11.7 8.4 16.1 2.5 4.5 8.3 13 12.9 19 4.6 6 12.6 15.1 17.9 20.2 5.3 5 13.5 12 18.2 15.5 4.8 3.5 10.7 7.6 13.3 9.3 2.5 1.6 8.5 4.9 13.2 7.3 4.7 2.4 12.8 6 17.8 8 5.1 2.1 14.4 5.1 20.7 6.7 6.3 1.7 15.7 3.6 20.7 4.4 5.1 0.8 17 1.4 26.5 1.3 9.5 0 22.4-0.9 28.7-1.8 6.3-1 16.8-3.4 23.3-5.3 6.5-1.9 16.3-5.5 21.9-7.8 5.5-2.4 14.4-6.9 19.8-10.1 5.4-3.1 13.7-8.6 18.4-12.1 4.7-3.5 12.2-9.7 16.5-13.8 4.4-4.1 11.3-11.6 15.3-16.6 4.1-5.1 9.7-12.6 12.4-16.7 2.7-4.1 7.5-12.7 10.7-19 3.1-6.3 7.3-16.1 9.3-21.8 2-5.7 4.6-14.8 5.8-20.2 1.3-5.3 2.9-15.4 3.7-22.4 0.9-7.6 1.1-17.9 0.7-25.9-0.4-7.2-1.5-18.1-2.5-24.1-1-6-3.9-17.7-6.5-25.9-2.6-8.2-6.8-19.1-9.3-24.1-2.6-5.1-7.3-13.4-10.5-18.4-3.2-5.1-8.6-12.8-12.2-17.3-3.5-4.4-10-11.6-14.5-16.1-4.5-4.4-12-11-16.7-14.5-4.7-3.6-12.7-9.1-17.7-12.1-5.1-3.1-12.1-7-15.5-8.6-3.5-1.7-9.2-4.2-12.7-5.6-3.5-1.4-10.5-3.8-15.5-5.3-5.1-1.6-15.2-3.9-22.5-5.1-9.6-1.6-17.8-2.2-30.4-2.1-9.5 0.2-19.2 0.5-21.6 0.7zm-305.6 196.9h127.6v-14.9h-127.6zm527.9 0h127.6v-15h-127.6zm-393.9 171.4l-44.9 44.8 11 11 90.2-90.3c-8-8-10.6-10.4-10.9-10.4-0.3 0-20.8 20.2-45.4 44.9zm332.9-37.6c-2.8 2.7-5 5.4-4.8 6 0.1 0.6 20.4 21.3 45 46l44.9 44.8 10.9-10.9-90.8-90.9zm-150.7 183.7h16.1v-128.8h-16.1zm10.6-500.1c10-0.1 19 0.6 28.2 2.2 7.4 1.2 18.4 3.9 24.4 5.8 6 2 15.9 5.9 21.9 8.7 6 2.8 16.1 8.6 22.4 12.8 7.1 4.8 16.4 12.6 24.2 20.4 7 6.9 15.6 16.8 19.1 21.8 3.5 5.1 8.6 13.1 11.3 17.8 2.6 4.8 6.5 13.1 8.6 18.4 2.2 5.4 5.2 14.7 6.8 20.7 1.6 6.1 3.5 15.6 4.3 21.3 0.8 6.6 1.1 17.3 0.7 29.3-0.4 10.9-1.5 22.7-2.6 27.6-1 4.8-3.4 13.3-5.3 19-1.9 5.7-5.6 15-8.3 20.7-2.7 5.7-7.6 14.5-11 19.6-3.4 5-9 12.7-12.6 17.1-3.5 4.4-9.5 10.8-13.3 14.4-3.8 3.5-10.8 9.3-15.6 12.8-4.7 3.6-12.5 8.7-17.2 11.3-4.8 2.7-11 6-13.8 7.2-2.9 1.3-8.6 3.6-12.7 5.2-4.1 1.6-12.6 4.1-18.9 5.6-6.4 1.6-18.5 3.4-27.1 4.2-11.9 1-18.5 1-28.7 0-7.3-0.8-17.6-2.5-23-3.7-5.4-1.3-12.1-3.2-15-4.1-2.8-1-9.3-3.5-14.3-5.6-5.1-2.1-12.6-5.7-16.7-8.1-4.1-2.3-11.6-7.1-16.7-10.7-5.1-3.5-14.6-11.9-21.3-18.5-7.3-7.4-15-16.7-19.7-23.7-4.2-6.3-9.7-15.6-12.3-20.7-2.5-5-6.4-14.6-8.7-21.3-2.2-6.6-4.9-16.2-5.9-21.2-1-5.1-2.2-15.7-2.8-23.6-0.7-8.9-0.6-18.5 0-25.3 0.6-6 2-15.1 3-20.1 1-5.1 3.4-13.9 5.3-19.6 1.9-5.7 5.8-15.2 8.8-21.3 2.9-6 8.4-15.5 12.2-21.2 4.1-6.2 12.5-16 20.7-24.3 9.3-9.4 17.4-16.3 24.7-21.1 6-4 15.5-9.5 21-12.2 5.6-2.8 14.9-6.7 20.7-8.6 5.9-1.9 13-4.1 15.8-4.7 2.9-0.7 9.6-1.9 15-2.7 5.4-0.8 16.4-1.6 24.4-1.6zm-27.9 15.9c-6 1.1-15.8 3.6-21.8 5.6-6 2-15.3 5.9-20.7 8.6-5.4 2.7-13.9 7.8-19 11.2-5.1 3.4-13.8 10.6-19.4 16-5.6 5.4-13.5 14.2-17.5 19.6-4.1 5.4-10.2 15.2-13.6 21.8-3.4 6.7-7.7 16.8-9.6 22.5-1.9 5.7-4.4 14.7-5.4 20.1-1.1 5.4-2.2 15.7-2.6 23-0.4 7.8-0.1 18 0.7 24.7 0.8 6.3 2.4 15.4 3.6 20.1 1.2 4.8 3.5 12 5 16.1 1.6 4.2 4.1 10.4 5.7 13.8 1.6 3.5 5.1 10.1 7.9 14.6 2.7 4.5 8.8 13 13.6 18.8 4.7 5.7 12.7 14 17.8 18.2 5.1 4.3 12.3 9.9 16.1 12.5 3.8 2.5 11.3 6.8 16.7 9.5 5.4 2.7 14.9 6.6 21.3 8.7 6.3 2.1 16.1 4.6 21.8 5.5 5.7 1 14 2.1 18.4 2.5 4.4 0.4 14 0.2 21.3-0.5 7.3-0.6 19.4-2.7 27-4.6 7.6-2 19-5.9 25.3-8.7 6.3-2.9 14.3-6.9 17.7-8.9 3.3-2.1 11.4-7.9 17.8-13.1 6.4-5.2 14.8-13.2 18.7-17.8 3.9-4.7 9.4-11.8 12.2-16 2.9-4.1 7.6-12.1 10.4-17.8 2.8-5.7 6.8-15.2 8.8-21.3 2-6 4.5-15.3 5.5-20.7 1.4-6.8 2-15.3 2-28.7-0.1-13.5-0.7-21.8-2.1-28.8-1.1-5.3-3.6-14.4-5.5-20.1-1.9-5.7-5.2-14.2-7.5-19-2.2-4.7-7.4-13.8-11.5-20.1-5-7.6-11.7-15.6-19.8-23.6-6.7-6.6-16.1-14.7-20.8-18-4.8-3.2-13.8-8.5-20.1-11.6-6.4-3.2-16.6-7.4-22.8-9.3-6.1-2-16-4.4-21.8-5.3-6.2-1-17.4-1.7-26.7-1.6-10.1 0-20.3 0.8-27.1 2.1z"/>
</svg>