<svg version="1.2" xmlns="http://www.w3.org/2000/svg" viewBox="0 0 800 800" width="800" height="800">
		<path fill-rule="evenodd" fill="#010101" stroke="#ffffff" paint-order="stroke fill markers" stroke-linejoin="round" stroke-width="14" d="m345.9 21.1h76.5l24.8 30.5-0.1 111.5 8.3 2.8c4.7 1.6 13.3 4.8 19.4 7.3 6 2.5 15.3 6.9 20.7 9.8 5.3 2.8 13.1 7.5 24.7 15.2l96.6-96.6 26.1 26.2c14.4 14.4 26.2 26.5 26.2 27 0 0.5 3.8 5.1 8.4 10.3 4.6 5.3 10.4 12 17.5 20.6l-96.6 96.3 7.4 11.3c4.1 6.2 10 16.7 13.1 23.3 3.2 6.7 7.4 16.8 13.2 32.8l118.7 0.6 25.3 31v75.9h-137.5l-1.5 7.2c-0.8 4-3.1 12.4-5 18.7-2 6.3-6.1 17.5-9.1 24.7-3.1 7.3-8.9 18.7-12.9 25.3-3.9 6.7-8 13.3-8.9 14.7-1.6 2.5-0.6 3.6 32.5 36.8 18.9 18.8 34.2 34.6 34.2 35.1 0 0.5 5.5 7.3 12.1 15.2 6.7 7.9 12.1 14.8 12.1 15.3 0 0.4-11.6 12.5-51.8 52.6l-48-48c-26.4-26.4-48.6-48-49.4-48-0.8 0-4.2 1.8-7.5 4-3.3 2.2-12 7.1-19.3 10.8-7.2 3.7-18.3 8.7-24.7 11-6.3 2.4-18.7 6-43.7 11.8l-0.6 134.8-76.4-0.1-24.7-30.3v-111.6l-5.5-1.6c-3-0.9-11.7-4.3-19.3-7.6-7.6-3.4-17.1-8-21.2-10.4-4.2-2.3-10.8-6.4-22.1-13.7l-95.8 96-29-29.1c-16-15.9-33.4-34.4-38.8-41.1-5.4-6.6-9.8-12.5-9.8-13.2 0-0.6 21.2-22.3 47.1-48.3 25.9-25.9 47.2-47.5 47.2-48 0-0.5-3.1-5.9-6.9-12.1-3.7-6.1-9.3-16.4-12.3-22.7-3-6.3-6.8-15.1-11.6-27.6l-119.6-1.1-24.4-29.9-0.1-76.5h135.2l3.2-14.7c1.8-8 5.4-20.3 7.9-27.3 2.6-6.9 7.1-17.5 10.1-23.6 3-6 7.6-14.5 15.1-27l-37.4-37.4c-20.5-20.5-41.5-42.5-46.6-48.8-5.1-6.4-9.3-12-9.3-12.7 0.1-0.6 11.8-12.9 52.4-53.5l95.4 95.4 10.4-6.9c5.7-3.7 14.7-9.1 20.1-11.9 5.4-2.8 16-7.5 23.6-10.5 7.6-2.9 20.1-7 42-12.6zm35.6 269.5c-4.1 0.9-11 3.1-15.5 4.8-4.4 1.6-11.9 5.2-16.7 7.8-4.7 2.7-10 6-11.7 7.4-1.8 1.5-3.7 2.6-4.2 2.6-0.6 0-6 4.9-12.1 10.9-6.1 6.1-11.1 11.5-11.1 12.1 0 0.7-1.2 2.6-2.7 4.3-1.5 1.8-3.9 5.3-5.4 7.8-1.4 2.5-4.3 8-6.4 12.1-2 4.1-4.8 10.8-6.1 14.9-1.3 4.1-3.2 11.4-4.3 16.1-1.2 5.7-1.8 14.1-1.8 24.7 0 12.6 0.6 18.5 2.5 26.5 1.4 5.7 3.5 13.2 4.7 16.7 1.1 3.5 3.7 9.4 5.7 13.2 2 3.8 5 8.4 6.7 10.2 1.7 1.7 6.5 5.4 10.6 8.2 4.1 2.7 10.6 6.5 14.4 8.4 3.8 2 10.4 4.9 14.6 6.5 4.3 1.6 11.6 3.8 16.1 4.9 6.3 1.5 13.2 2 27.9 2 14.7 0 21.7-0.5 27.9-2 4.6-1.1 11.6-3.2 15.5-4.7 4-1.5 10.3-4.2 14.1-6 3.8-1.7 10.8-5.8 15.5-9 4.7-3.2 12.7-10 17.8-15.1 5.1-5.1 11.6-12.6 14.4-16.7 2.8-4.1 7-11 9.3-15.5 2.4-4.4 5.6-11.9 7.2-16.6 1.6-4.8 3.8-13 4.9-18.4 1.4-6.6 2-14.7 2-24.8 0-9.3-0.7-18.1-1.9-23.5-1-4.8-2.9-12-4.2-16.1-1.3-4.1-4.3-11.4-6.6-16.1-3.4-6.7-5.7-9.6-11-13.8-3.7-2.8-8.6-6.4-11-7.8-2.3-1.4-6.8-3.9-9.9-5.6-3.2-1.7-9-4.3-13-5.8-3.9-1.5-11.7-3.7-17.2-5.1-6.4-1.5-15.3-2.5-24.5-2.8-7.9-0.2-17.2 0-20.7 0.6-3.4 0.5-9.6 1.7-13.8 2.7z"/>
		<path fill-rule="evenodd" opacity="1" fill="#e8e8e8" d="m383.2 46.4c2 0 4.2 0.6 5 1.4 0.8 0.8 1.5 2.9 1.5 4.6 0 2.7 0.5 3.2 6.3 3.8l0.6 63.4c0.3 34.9 0.8 63.8 1.1 64.1 0.3 0.4 5 1.2 10.4 1.8 5.3 0.5 14.9 2.1 21.2 3.4 6.3 1.2 16.2 3.9 21.9 5.9 5.7 2 15.8 6.2 22.4 9.3 6.6 3.2 16.5 8.7 21.9 12.2 5.3 3.5 12.8 8.8 23.5 17.4l44.8-44.8c24.7-24.6 45.4-44.8 46-44.8 0.7 0 2.3 1.1 5.8 4.8l-90.8 90.7 6.9 6.9 90.8-90.8-6.9-7 6.4-6.3 7.4 7.4-6.3 6.4 5.2 5.2-90.9 90.6 5.9 7.3c3.3 4 8.8 11.7 12.3 17.1 3.5 5.4 8.6 14.4 11.5 20.1 2.9 5.7 7.3 16.6 9.9 24.2 2.6 7.6 5.7 18.9 6.9 25.3 1.2 6.3 2.5 15.5 3.6 29.3h128.8v4c0 4 0.1 4 9.2 4l-0.3 4.9c-0.3 4.8-0.4 4.9-4.6 5.2-4 0.3-4.4 0.6-4.9 7.8l-64.1 0.3c-35.3 0.1-64.1 0.5-64.1 0.8 0 0.3-0.8 5.9-1.8 12.4-1 6.5-3.1 16.7-4.7 22.7-1.6 6-4.8 15.6-7 21.3-2.3 5.7-5.9 13.9-8.1 18.4-2.2 4.4-7.3 12.9-11.3 18.9-4 6.1-9.9 14.1-18.9 24.8l90.9 90.8-5.9 5.8-90.7-90.9-7.5 7.5 90.8 90.7-2.3 2.4c-1.2 1.3-2.8 2.4-3.4 2.4-0.7 0-21.4-20.2-46-44.9-24.7-24.7-44.4-44.8-43.7-44.8 0.6 0 0.7-0.3 0.3-0.6-0.5-0.3-3.6 1.6-6.9 4.3-3.4 2.7-9.7 7.3-14.1 10.3-4.5 2.9-13.2 7.9-19.6 11.1-6.3 3.2-16.4 7.5-22.4 9.7-6 2.2-16.9 5.3-24.1 7-8.7 1.9-16.7 3-33.4 3l-0.6 128.2-3.7 0.3c-3.5 0.3-3.8 0.6-4 4.6-0.3 4.2-0.4 4.3-10.1 4.9v-4.6c0-4.5-0.1-4.6-8.1-4.6v-128.8h-7.1c-4 0-12.4-1-18.7-2.3-6.3-1.3-17-4.2-23.6-6.4-6.6-2.3-17.5-6.8-24.2-10.1-6.6-3.3-17.5-9.7-24.1-14.2-6.6-4.5-13.4-9.6-14.9-11.2-1.6-1.7-3.4-3-4-3-0.6 0-21.3 20.3-90.9 89.8l-5.8-5.9 90.3-90.2-7.5-7.5-90.1 90.3-2.4-2.3c-1.3-1.2-2.4-2.8-2.4-3.4 0-0.7 20-21.1 44.3-45.5 24.4-24.3 44.3-44.7 44.3-45.4 0-0.6-1.3-2.4-2.9-4-1.7-1.6-6.8-8.6-11.5-15.5-4.6-7-10.9-17.9-14-24.2-3.1-6.3-6-12.5-6.4-13.8-0.4-1.2-2.3-6.9-4.2-12.6-2-5.7-4.6-15.7-5.9-22.2-1.2-6.4-2.3-14.3-2.3-23.3h-127.6v-4c0-3.9-0.1-4-9.2-4v-10.4h4.6c4.5 0 4.6 0 4.6-8h127.6v-9.2c0-5.1 1.1-14.5 2.4-21 1.3-6.5 4.2-17.2 6.5-23.9 2.2-6.6 6.7-17.5 10-24.1 3.3-6.6 8.5-16 11.6-20.7 3.1-4.7 8-11.4 16.1-20.9l-90.8-90.6 5.1-5.2-6.3-6.4 7.5-7.4 6.3 6.3-6.9 7 90.2 90.2 7.1-6.9-90.4-90.2 5.8-5.9 90 90.3 3.3-2.4c1.8-1.4 4.1-3.4 5-4.5 0.9-1.1 6.1-5.1 11.5-9 5.4-3.8 15.5-9.9 22.4-13.5 7-3.6 17.6-8.4 23.6-10.6 6-2.2 15.6-5.1 21.3-6.5 5.7-1.3 15-3.1 31-5.3l1.2-128.7 3.7-0.3c3.5-0.3 3.7-0.6 3.6-4.1-0.1-2.1 0.2-4.2 0.7-4.6 0.6-0.5 2.6-0.8 4.5-0.8zm-232.8 568.1c0.3 0 2.2 1.5 7.5 6.9l-6.3 6.3-7.5-7.4 2.8-2.9c1.5-1.6 3.1-2.9 3.5-2.9zm470.3 3.4c0.4 0 2 1.3 6.4 5.9l-7.4 7.4-6.4-6.3 3.4-3.5c1.9-1.9 3.7-3.5 4-3.5zm-241.4-433.5h9.2v-127.7h-9.2zm-14.1 14.7c-2.4 0.3-8.6 1.3-13.8 2.3-5.2 0.9-13.4 2.9-18.1 4.3-4.7 1.4-13 4.4-18.4 6.7-5.4 2.2-12.9 5.7-16.7 7.8-3.8 2.1-10.5 6.1-14.9 9-4.5 2.9-12.5 8.9-17.9 13.3-5.3 4.5-14.1 13.3-19.4 19.6-5.3 6.3-12.2 15.4-15.4 20.1-3.1 4.7-8.7 14.8-12.4 22.4-4 8.3-8.4 19.6-10.8 28.2-2.3 7.9-4.9 20.2-5.8 27.3-0.9 7.1-1.7 18.3-1.7 24.7 0 6.5 0.8 17.3 1.7 23.9 0.8 6.6 2.6 16.2 3.9 21.3 1.3 5 3.6 12.8 5.1 17.2 1.6 4.5 4.5 11.7 6.6 16.1 2.1 4.5 5.9 11.7 8.4 16.1 2.5 4.5 7.7 12.2 11.5 17.3 3.8 5 10.6 13 15.1 17.6 4.4 4.7 12.2 11.8 17.3 15.7 5 4 12.3 9.3 16.1 11.8 3.8 2.5 10.8 6.5 15.5 8.9 4.7 2.4 12.8 6 17.8 8 5.1 2.1 14.4 5.1 20.7 6.7 6.3 1.7 15.7 3.6 20.7 4.4 5.1 0.8 17 1.4 26.5 1.3 9.5 0 22.4-0.9 28.7-1.8 6.4-1 16.8-3.4 23.3-5.3 6.5-1.9 16.3-5.5 21.9-7.8 5.5-2.4 14.4-6.9 19.8-10.1 5.4-3.1 13.7-8.6 18.4-12.1 4.7-3.5 12.2-9.7 16.5-13.8 4.4-4.1 11.3-11.6 15.3-16.6 4.1-5.1 9.7-12.6 12.4-16.7 2.7-4.1 7.5-12.7 10.7-19 3.1-6.3 7.3-16.1 9.3-21.8 2-5.7 4.6-14.8 5.8-20.2 1.3-5.3 2.9-15.4 3.7-22.4 0.9-7.6 1.1-17.9 0.7-25.9-0.4-7.2-1.5-18.1-2.5-24.1-1-6-3.9-17.7-6.5-25.9-2.6-8.2-6.8-19.1-9.3-24.1-2.6-5.1-7.3-13.4-10.5-18.4-3.2-5.1-8.6-12.8-12.2-17.2-3.5-4.4-10-11.7-14.5-16.1-4.5-4.5-12-11.1-16.7-14.6-4.7-3.6-12.7-9.1-17.7-12.1-5.1-3.1-12.1-7-15.5-8.6-3.5-1.7-9.2-4.2-12.7-5.6-3.5-1.4-10.5-3.8-15.5-5.3-5.1-1.6-15.2-3.9-22.5-5.1-9.6-1.6-17.8-2.2-30.4-2.1-9.5 0.2-19.2 0.5-21.6 0.7zm-305.6 194.6h127.6v-10.3h-127.6zm527.9 0h127.6v-10.4h-127.6zm-208.2 319.7h10.4v-128.8h-10.4zm7.2-500c10.1-0.1 18.8 0.5 28.2 2.1 7.4 1.3 18.4 3.9 24.4 5.9 6 1.9 15.8 5.8 21.9 8.7 6 2.8 16 8.6 22.4 12.8 7 4.7 16.4 12.6 24.2 20.3 7.2 7.2 16 17.4 20.3 23.6 4.1 6 9.9 15.6 12.8 21.3 2.9 5.7 7 15.8 9.2 22.4 2.2 6.6 4.9 16.5 6.1 21.8 1.7 7.8 2.1 14.8 2.1 33.4 0 18.6-0.4 25.6-2.1 33.3-1.2 5.4-3.7 14.5-5.5 20.2-1.9 5.7-5.6 15-8.3 20.7-2.7 5.7-8 14.9-11.7 20.6-3.8 5.6-10.2 14.2-14.4 18.9-4.1 4.8-11.3 12-16.1 16.2-4.8 4.1-12.3 9.9-16.7 12.9-4.4 2.9-12.6 7.7-18.3 10.5-5.7 2.9-14 6.6-18.4 8.3-4.5 1.6-13.3 4.3-19.6 5.8-6.3 1.5-18.5 3.4-27 4.1-12 1.1-18.6 1.1-28.8 0-7.2-0.7-17.6-2.4-23-3.7-5.3-1.3-11.8-3-14.3-3.9-2.6-0.8-8.6-3.1-13.5-5.1-4.9-1.9-11.9-5.2-15.6-7.2-3.6-2-11.5-7-17.5-11.1-6.1-4.2-16.2-12.8-23-19.7-7.3-7.3-15.1-16.6-19.7-23.6-4.3-6.4-9.8-15.7-12.3-20.7-2.5-5.1-6.5-14.7-8.7-21.3-2.3-6.6-4.9-16.2-5.9-21.3-1-5-2.3-15.6-2.8-23.6-0.7-9.1-0.7-18.5 0.1-25.8 0.6-6.4 2.3-17 3.8-23.6 1.5-6.6 4.8-17.5 7.5-24.2 2.6-6.6 7-15.9 9.7-20.7 2.7-4.7 7.5-12.2 10.5-16.6 3.1-4.5 11.6-14.1 18.9-21.4 8.7-8.8 17.1-15.9 24.2-20.6 6-3.9 15.5-9.4 21-12.2 5.5-2.8 15.6-6.9 22.4-9.1 6.8-2.3 16.8-4.8 22.1-5.7 5.4-0.9 11.4-1.9 13.3-2.1 1.9-0.3 10-0.5 18.1-0.6zm-27.9 15.8c-6 1.1-15.8 3.7-21.9 5.7-6 2-15.3 5.8-20.7 8.6-5.3 2.7-13.9 7.7-18.9 11.1-5.1 3.4-13.8 10.6-19.4 16-5.6 5.5-13.5 14.3-17.6 19.6-4 5.4-10.1 15.3-13.5 21.9-3.4 6.6-7.8 16.7-9.7 22.4-1.9 5.7-4.3 14.8-5.3 20.1-1.1 5.4-2.2 15.5-2.6 22.5-0.4 7.1-0.1 17.9 0.7 24.7 0.8 6.6 2.4 16 3.6 20.7 1.2 4.7 3.4 12 5 16.1 1.5 4.1 4.1 10.3 5.7 13.8 1.6 3.5 5.1 10 7.8 14.6 2.8 4.5 8.9 12.9 13.6 18.7 4.8 5.8 12.6 13.8 17.3 17.8 4.7 4 12 9.6 16.1 12.4 4.1 2.9 11.9 7.4 17.2 10.1 5.4 2.7 15 6.6 21.3 8.7 6.3 2.1 16.2 4.5 21.9 5.5 5.7 1 13.9 2.1 18.4 2.5 4.4 0.3 14 0.1 21.2-0.5 7.3-0.7 19.5-2.8 27.1-4.7 7.6-1.9 18.9-5.8 25.3-8.7 6.3-2.8 14.2-6.8 17.6-8.9 3.4-2 10.9-7.4 16.7-12 5.8-4.6 14-12.4 18.3-17.3 4.3-4.9 10.3-12.5 13.4-16.9 3.1-4.5 7.9-12.7 10.8-18.4 2.8-5.7 6.8-15.3 8.7-21.3 2-6 4.5-15.3 5.6-20.7 1.4-6.9 1.9-15.4 1.9-28.8 0-13.5-0.6-21.7-2-28.7-1.1-5.4-3.6-14.4-5.5-20.1-1.9-5.7-5.3-14.3-7.5-19-2.2-4.7-7.4-13.8-11.6-20.1-4.9-7.6-11.7-15.7-19.7-23.6-6.7-6.7-16.6-15.1-22-18.6-5.4-3.6-14.4-8.9-20.1-11.7-5.7-2.8-15.4-6.7-21.6-8.7-6.2-1.9-16-4.3-21.8-5.3-6.2-1-17.5-1.6-26.8-1.6-10 0.1-20.2 0.9-27 2.1z"/>
</svg>